<?xml version="1.0" encoding="UTF-8" standalone="no"?>
<!-- Created with Inkscape (http://www.inkscape.org/) -->

<svg
   width="198mm"
   height="117mm"
   viewBox="0 0 198 117"
   version="1.1"
   id="svg1"
   inkscape:version="1.4.2 (ebf0e940d0, 2025-05-08)"
   sodipodi:docname="seerflow_logo_mono_white.svg"
   xmlns:inkscape="http://www.inkscape.org/namespaces/inkscape"
   xmlns:sodipodi="http://sodipodi.sourceforge.net/DTD/sodipodi-0.dtd"
   xmlns="http://www.w3.org/2000/svg"
   xmlns:svg="http://www.w3.org/2000/svg">
  <sodipodi:namedview
     id="namedview1"
     pagecolor="#ffffff"
     bordercolor="#000000"
     borderopacity="0.25"
     inkscape:showpageshadow="2"
     inkscape:pageopacity="0.0"
     inkscape:pagecheckerboard="0"
     inkscape:deskcolor="#d1d1d1"
     inkscape:document-units="mm"
     inkscape:clip-to-page="false"
     inkscape:zoom="0.45861296"
     inkscape:cx="583.2805"
     inkscape:cy="468.80489"
     inkscape:window-width="990"
     inkscape:window-height="1131"
     inkscape:window-x="20"
     inkscape:window-y="20"
     inkscape:window-maximized="0"
     inkscape:current-layer="layer1" />
  <defs
     id="defs1">
    <rect
       x="222.45834"
       y="398.89081"
       width="42.190376"
       height="52.418346"
       id="rect2" />
  </defs>
  <g
     inkscape:label="Layer 1"
     inkscape:groupmode="layer"
     id="layer1">
    <path
       d="m 20.314971,69.850643 c -0.214313,0.174625 -0.436563,0.552979 -0.529167,0.87577 -0.0926,0.320146 -0.02646,0.703792 -0.0291,1.055688 -0.0026,0.351896 -0.05027,0.754062 0.0079,1.050396 0.05821,0.296333 0.119063,0.566208 0.338667,0.724958 0.219604,0.161396 0.637646,0.182563 0.976313,0.238125 0.338666,0.05556 0.706437,0.08467 1.058333,0.100542 0.351896,0.01852 0.706437,0.0026 1.058333,0.0026 0.351896,0 0.706438,0 1.058334,0 0.351895,0 0.706437,0 1.058333,0 0.351896,0 0.706437,0 1.058333,0 0.351896,0 0.706438,0 1.058333,0 0.351896,0 0.706438,0 1.058334,0 0.351896,0 0.706437,-0.0026 1.058333,0 0.351896,0.0026 0.706438,-0.01323 1.058333,0.02117 0.351896,0.0344 0.706438,0.150813 1.058334,0.1905 0.351896,0.03969 0.706437,0.04498 1.058333,0.05292 0.351896,0.0079 0.706438,-0.0079 1.058333,0 0.351896,0.0079 0.706438,0.01323 1.058334,0.05292 0.351896,0.03969 0.706437,0.150812 1.058333,0.1905 0.351896,0.03969 0.706438,0.0026 1.058333,0.04233 0.351896,0.03969 0.706438,0.145521 1.058334,0.1905 0.351895,0.04498 0.706437,0.0291 1.058332,0.07408 0.3519,0.04498 0.70644,0.129646 1.05834,0.198438 0.35189,0.06615 0.70643,0.134937 1.05833,0.211666 0.3519,0.07938 0.70644,0.182563 1.05833,0.259292 0.3519,0.07673 0.70644,0.129646 1.05834,0.206375 0.35189,0.07673 0.70643,0.171979 1.05833,0.259292 0.3519,0.08731 0.70644,0.171979 1.05833,0.264583 0.3519,0.0926 0.70644,0.174625 1.05834,0.283104 0.35189,0.111125 0.70643,0.261938 1.05833,0.375709 0.3519,0.111125 0.70644,0.193145 1.05833,0.301625 0.3519,0.111125 0.70644,0.230187 1.05834,0.351895 0.35189,0.124355 0.70643,0.254 1.05833,0.386292 0.3519,0.132292 0.70644,0.275167 1.05833,0.407458 0.3519,0.132292 0.70644,0.246063 1.05834,0.391584 0.35189,0.145521 0.70643,0.322791 1.05833,0.47625 0.3519,0.153458 0.70644,0.277812 1.05833,0.439208 0.3519,0.161396 0.70644,0.354542 1.05834,0.523875 0.35189,0.166687 0.70643,0.304271 1.05833,0.478896 0.3519,0.174625 0.70644,0.378354 1.05833,0.563562 0.3519,0.187854 0.70644,0.351896 1.05834,0.550334 0.35189,0.198437 0.70643,0.418041 1.05833,0.635 0.3519,0.216958 0.70644,0.452437 1.05833,0.672041 0.3519,0.219604 0.70644,0.425979 1.05834,0.650875 0.35189,0.227542 0.70643,0.468313 1.05833,0.703792 0.3519,0.235479 0.70644,0.470958 1.05833,0.706437 0.3519,0.23548 0.70644,0.465667 1.05834,0.71173 0.35189,0.243416 0.70643,0.518583 1.05833,0.759354 0.3519,0.240771 0.70644,0.4445 1.05833,0.682625 0.3519,0.240771 0.70644,0.513291 1.05834,0.756708 0.35189,0.240771 0.70643,0.470958 1.05833,0.690563 0.3519,0.219604 0.70644,0.420687 1.05833,0.632354 0.3519,0.211666 0.70644,0.423333 1.05834,0.629708 0.35189,0.209021 0.70643,0.428625 1.05833,0.621771 0.3519,0.193146 0.70644,0.34925 1.05833,0.534458 0.3519,0.187854 0.70644,0.399521 1.05834,0.579438 0.35189,0.179916 0.70643,0.325437 1.05833,0.494771 0.3519,0.166687 0.70644,0.346604 1.05833,0.513291 0.3519,0.166688 0.70644,0.338667 1.05834,0.492125 0.35189,0.153458 0.70643,0.283104 1.05833,0.423333 0.3519,0.14023 0.70644,0.277813 1.05833,0.418042 0.3519,0.140229 0.70644,0.280458 1.05834,0.420688 0.35189,0.142875 0.70643,0.293687 1.05833,0.423333 0.3519,0.129646 0.70644,0.240771 1.05833,0.357187 0.3519,0.119063 0.70644,0.240771 1.05834,0.354542 0.35189,0.111125 0.70643,0.22225 1.05833,0.3175 0.3519,0.0979 0.70644,0.179917 1.05833,0.267229 0.3519,0.08731 0.70644,0.179917 1.05834,0.264584 0.35189,0.08467 0.70643,0.17727 1.05833,0.246062 0.3519,0.06615 0.70644,0.0979 1.05833,0.153458 0.3519,0.05556 0.70644,0.113771 1.05834,0.177271 0.35189,0.06085 0.70643,0.150813 1.05833,0.195792 0.3519,0.04498 0.70644,0.0291 1.05833,0.07408 0.3519,0.04498 0.70644,0.150813 1.05834,0.1905 0.35189,0.03969 0.70643,0.0344 1.05833,0.05292 0.3519,0.01852 0.70644,0.01323 1.05833,0.05292 0.3519,0.03969 0.70644,0.156104 1.05834,0.1905 0.35189,0.0344 0.70643,0.0291 1.05833,0.01852 0.3519,-0.0079 0.70644,-0.0635 1.05833,-0.07937 0.3519,-0.01587 0.706441,0.01058 1.058341,-0.01587 0.35189,-0.0291 0.70643,-0.119062 1.05833,-0.14552 0.3519,-0.02911 0.70644,-0.0079 1.05833,-0.02117 0.3519,-0.01323 0.70644,-0.01323 1.05834,-0.05292 0.35189,-0.03969 0.70643,-0.150812 1.05833,-0.1905 0.3519,-0.03969 0.70644,-0.0026 1.05833,-0.04233 0.3519,-0.03969 0.70644,-0.134938 1.05834,-0.193146 0.35189,-0.05556 0.70643,-0.0926 1.05833,-0.153458 0.3519,-0.06085 0.70644,-0.132292 1.05833,-0.209021 0.3519,-0.07408 0.70644,-0.164042 1.05834,-0.248708 0.35189,-0.08467 0.70643,-0.177271 1.05833,-0.264584 0.3519,-0.08731 0.70644,-0.169333 1.05833,-0.267229 0.3519,-0.09525 0.70644,-0.214312 1.05834,-0.314854 0.35189,-0.0979 0.70643,-0.182563 1.05833,-0.283104 0.3519,-0.100542 0.70644,-0.216959 1.05833,-0.322792 0.3519,-0.108479 0.70644,-0.195792 1.05834,-0.3175 0.35189,-0.121708 0.70643,-0.269875 1.05833,-0.418042 0.3519,-0.148166 0.70644,-0.325437 1.05833,-0.47625 0.3519,-0.150812 0.70644,-0.27252 1.05834,-0.428625 0.35189,-0.156104 0.70643,-0.343958 1.05833,-0.508 0.3519,-0.164041 0.70644,-0.309562 1.05833,-0.470958 0.3519,-0.161396 0.70644,-0.3175 1.05834,-0.497416 0.35189,-0.179917 0.70643,-0.396875 1.05833,-0.587375 0.3519,-0.193146 0.70644,-0.381 1.05833,-0.566209 0.3519,-0.185208 0.70644,-0.34925 1.05834,-0.545041 0.35189,-0.195792 0.70643,-0.420688 1.05833,-0.635 0.3519,-0.214313 0.70644,-0.423334 1.05833,-0.650875 0.3519,-0.230188 0.70644,-0.468313 1.05834,-0.719667 0.35189,-0.251354 0.70643,-0.531813 1.05833,-0.788458 0.3519,-0.256646 0.70644,-0.510646 1.05833,-0.746125 0.3519,-0.23548 0.70644,-0.423334 1.05834,-0.661459 0.35189,-0.238125 0.70643,-0.523875 1.05833,-0.772583 0.3519,-0.248708 0.70644,-0.481542 1.05833,-0.719667 0.3519,-0.238125 0.70644,-0.470958 1.05834,-0.706437 0.35189,-0.235479 0.70643,-0.47625 1.05833,-0.706438 0.3519,-0.227541 0.70644,-0.463021 1.05833,-0.66675 0.3519,-0.203729 0.70644,-0.354541 1.05834,-0.550333 0.35189,-0.195792 0.70643,-0.420688 1.05833,-0.619125 0.3519,-0.198438 0.70644,-0.383646 1.05833,-0.566208 0.3519,-0.182563 0.70644,-0.351896 1.05834,-0.529167 0.35189,-0.177271 0.70643,-0.359833 1.05833,-0.529167 0.3519,-0.169333 0.70644,-0.338666 1.05833,-0.492125 0.3519,-0.153458 0.70644,-0.283104 1.05834,-0.423333 0.35189,-0.140229 0.70643,-0.277812 1.05833,-0.418042 0.3519,-0.140229 0.70644,-0.28575 1.05833,-0.420687 0.3519,-0.137583 0.70644,-0.267229 1.05834,-0.391583 0.35189,-0.124355 0.70643,-0.240771 1.05833,-0.351896 0.3519,-0.113771 0.70644,-0.211667 1.05833,-0.3175 0.3519,-0.105834 0.70644,-0.230188 1.05834,-0.3175 0.35189,-0.08996 0.70643,-0.132292 1.05833,-0.211667 0.3519,-0.07937 0.70644,-0.171979 1.05833,-0.259292 0.3519,-0.08731 0.70644,-0.17727 1.05834,-0.264583 0.35189,-0.08731 0.70643,-0.185208 1.05833,-0.264583 0.3519,-0.07937 0.70644,-0.142875 1.05833,-0.211667 0.3519,-0.06879 0.70644,-0.145521 1.05834,-0.201083 0.35189,-0.05292 0.70643,-0.06615 1.05833,-0.121709 0.35189,-0.05556 0.70644,-0.140229 1.05833,-0.206375 0.3519,-0.06879 0.70644,-0.153458 1.05834,-0.198437 0.35189,-0.04498 0.70643,-0.0291 1.05833,-0.07408 0.35189,-0.04498 0.70644,-0.156105 1.05833,-0.1905 0.3519,-0.0344 0.70644,-0.0079 1.05834,-0.02117 0.35189,-0.01323 0.70643,-0.01323 1.05833,-0.05292 0.35189,-0.03969 0.70644,-0.156104 1.05833,-0.1905 0.3519,-0.0344 0.70644,-0.01852 1.05834,-0.02117 0.35189,-0.0026 0.70643,0 1.05833,0 0.35189,0 0.70644,0 1.05833,0 0.3519,0 0.70644,0 1.05834,0 0.35189,0 0.70643,0 1.05833,0 0.35189,0 0.70644,0 1.05833,0 0.3519,0 0.70644,0 1.05834,0 0.35189,0 0.70643,0 1.05833,0 0.35189,0 0.70644,0.01058 1.05833,0 0.3519,-0.01058 0.73819,0.03704 1.0504,-0.06085 0.31221,-0.0979 0.64558,-0.275166 0.82285,-0.529166 0.17727,-0.254 0.20373,-0.656167 0.23548,-0.997479 0.0318,-0.343959 0.008,-0.71173 -0.045,-1.058334 -0.0529,-0.346604 -0.10319,-0.769937 -0.27252,-1.029229 -0.16933,-0.259292 -0.44185,-0.436562 -0.74083,-0.529167 -0.29898,-0.0926 -0.6985,-0.02381 -1.0504,-0.0291 -0.35189,-0.0053 -0.70644,0 -1.05833,0 -0.3519,0 -0.70644,0 -1.05833,0 -0.3519,0 -0.70644,0 -1.05834,0 -0.35189,0 -0.70644,0 -1.05833,0 -0.3519,0 -0.70644,0 -1.05833,0 -0.3519,0 -0.70644,0 -1.05834,0 -0.35189,0 -0.70644,0 -1.05833,0 -0.3519,0 -0.70644,0 -1.05833,0 -0.3519,0 -0.70644,0 -1.05834,0 -0.35189,0 -0.70644,-0.01587 -1.05833,0.0026 -0.3519,0.01587 -0.70644,0.05821 -1.05833,0.100542 -0.3519,0.04233 -0.70644,0.127 -1.05834,0.156104 -0.35189,0.02646 -0.70644,-0.01587 -1.05833,0.01058 -0.3519,0.0291 -0.70644,0.113771 -1.05833,0.156104 -0.3519,0.04498 -0.70644,0.0635 -1.05834,0.10848 -0.35189,0.04498 -0.70644,0.105833 -1.05833,0.156104 -0.3519,0.05292 -0.70644,0.09525 -1.05833,0.153458 -0.3519,0.05821 -0.70644,0.142875 -1.05834,0.195792 -0.35189,0.05292 -0.70643,0.06615 -1.05833,0.121708 -0.3519,0.05556 -0.70644,0.132292 -1.05833,0.209021 -0.3519,0.07408 -0.70644,0.164042 -1.05834,0.248708 -0.35189,0.08467 -0.70643,0.177271 -1.05833,0.264584 -0.3519,0.08731 -0.70644,0.17727 -1.05833,0.264583 -0.3519,0.08731 -0.70644,0.169333 -1.05834,0.267229 -0.35189,0.09525 -0.70643,0.206375 -1.05833,0.3175 -0.3519,0.113771 -0.70644,0.235479 -1.05833,0.354542 -0.3519,0.116416 -0.70644,0.235479 -1.05834,0.351896 -0.35189,0.116416 -0.70643,0.230187 -1.05833,0.351895 -0.3519,0.124355 -0.70644,0.251355 -1.05833,0.386292 -0.3519,0.134938 -0.70644,0.272521 -1.05834,0.423333 -0.35189,0.150813 -0.70643,0.325438 -1.05833,0.47625 -0.3519,0.150813 -0.70644,0.272521 -1.05833,0.428625 -0.3519,0.156105 -0.70644,0.338667 -1.05834,0.513292 -0.35189,0.174625 -0.70643,0.351896 -1.05833,0.529167 -0.3519,0.177271 -0.70644,0.34925 -1.05833,0.529166 -0.3519,0.179917 -0.70644,0.34925 -1.05834,0.545042 -0.35189,0.195792 -0.70643,0.428625 -1.05833,0.629708 -0.3519,0.201084 -0.70644,0.373063 -1.05833,0.582084 -0.3519,0.211666 -0.70644,0.465666 -1.05834,0.685271 -0.35189,0.219604 -0.70643,0.415395 -1.05833,0.637645 -0.3519,0.22225 -0.70644,0.449792 -1.05833,0.690563 -0.3519,0.243416 -0.70644,0.518583 -1.05834,0.756708 -0.35189,0.235479 -0.70643,0.436563 -1.05833,0.669396 -0.3519,0.232833 -0.70644,0.47625 -1.05833,0.722312 -0.3519,0.248709 -0.70644,0.523875 -1.05834,0.756709 -0.35189,0.230187 -0.70643,0.415396 -1.05833,0.637646 -0.3519,0.22225 -0.70644,0.460375 -1.05833,0.690562 -0.3519,0.230188 -0.70644,0.470958 -1.05834,0.690563 -0.35189,0.219604 -0.70643,0.425979 -1.05833,0.632354 -0.3519,0.203729 -0.70644,0.396875 -1.05833,0.597958 -0.3519,0.203729 -0.70644,0.423333 -1.05834,0.621771 -0.35189,0.198437 -0.70643,0.383646 -1.05833,0.566208 -0.3519,0.182563 -0.70644,0.351896 -1.05833,0.529167 -0.3519,0.177271 -0.70644,0.354542 -1.05834,0.529167 -0.35189,0.174625 -0.70643,0.362479 -1.05833,0.523875 -0.3519,0.161395 -0.70644,0.293687 -1.05833,0.436562 -0.3519,0.145521 -0.70644,0.293688 -1.05834,0.423333 -0.35189,0.129646 -0.70643,0.240771 -1.05833,0.357188 -0.3519,0.116417 -0.70644,0.235479 -1.05833,0.338667 -0.3519,0.103187 -0.70644,0.179916 -1.05834,0.28575 -0.35189,0.103187 -0.70643,0.243416 -1.05833,0.343958 -0.3519,0.103187 -0.70644,0.187854 -1.05833,0.267229 -0.3519,0.07937 -0.70644,0.150813 -1.05834,0.214313 -0.35189,0.06085 -0.70643,0.09789 -1.05833,0.153458 -0.3519,0.05556 -0.70644,0.113771 -1.05833,0.177271 -0.3519,0.06085 -0.70644,0.137583 -1.05834,0.198437 -0.35189,0.05821 -0.70643,0.100542 -1.05833,0.153458 -0.3519,0.05027 -0.70644,0.127 -1.05833,0.156105 -0.3519,0.02646 -0.70644,0.0053 -1.05834,0.0053 -0.35189,0 -0.70643,0 -1.05833,0 -0.3519,0 -0.70644,0 -1.05833,0 -0.3519,0 -0.706441,0 -1.058341,0 -0.35189,0 -0.70643,0 -1.05833,0 -0.3519,0 -0.70644,0 -1.05833,0 -0.3519,0 -0.70644,0 -1.05834,0 -0.35189,0 -0.70643,0.02117 -1.05833,-0.0053 -0.3519,-0.0291 -0.70644,-0.113771 -1.05833,-0.156105 -0.3519,-0.04233 -0.70644,-0.07673 -1.05834,-0.103187 -0.35189,-0.02381 -0.70643,-0.01058 -1.05833,-0.05292 -0.3519,-0.03969 -0.70644,-0.140229 -1.05833,-0.193145 -0.3519,-0.05027 -0.70644,-0.06615 -1.05834,-0.121709 -0.35189,-0.05556 -0.70643,-0.132291 -1.05833,-0.209021 -0.3519,-0.07408 -0.70644,-0.164041 -1.05833,-0.248708 -0.3519,-0.08731 -0.70644,-0.169333 -1.05834,-0.267229 -0.35189,-0.09525 -0.70643,-0.206375 -1.05833,-0.3175 -0.3519,-0.113771 -0.70644,-0.235479 -1.05833,-0.354542 -0.3519,-0.116416 -0.70644,-0.227541 -1.05834,-0.357187 -0.35189,-0.129646 -0.70643,-0.277813 -1.05833,-0.423334 -0.3519,-0.142875 -0.70644,-0.28575 -1.05833,-0.433916 -0.3519,-0.150813 -0.70644,-0.306917 -1.05834,-0.460375 -0.35189,-0.153459 -0.70643,-0.298979 -1.05833,-0.463021 -0.3519,-0.166688 -0.70644,-0.351896 -1.05833,-0.529167 -0.3519,-0.177271 -0.70644,-0.343958 -1.05834,-0.529166 -0.35189,-0.187855 -0.70643,-0.396875 -1.05833,-0.595313 -0.3519,-0.198437 -0.70644,-0.399521 -1.05833,-0.595312 -0.3519,-0.193146 -0.70644,-0.357188 -1.05834,-0.566209 -0.35189,-0.209021 -0.70643,-0.465666 -1.05833,-0.685271 -0.3519,-0.219604 -0.70644,-0.423333 -1.05833,-0.635 -0.3519,-0.214312 -0.70644,-0.420687 -1.05834,-0.637645 -0.35189,-0.219605 -0.70643,-0.4445 -1.05833,-0.672042 -0.3519,-0.230188 -0.70644,-0.470958 -1.05833,-0.706438 -0.3519,-0.235479 -0.70644,-0.470958 -1.05834,-0.706437 -0.35189,-0.235479 -0.70643,-0.468313 -1.05833,-0.703792 -0.3519,-0.235479 -0.70644,-0.473604 -1.05833,-0.706437 -0.3519,-0.232834 -0.70644,-0.463021 -1.05834,-0.690563 -0.35189,-0.227541 -0.70643,-0.433916 -1.05833,-0.669395 -0.3519,-0.238125 -0.70644,-0.523875 -1.05833,-0.751417 -0.3519,-0.224896 -0.70644,-0.399521 -1.05834,-0.60325 -0.35189,-0.206375 -0.70643,-0.423333 -1.05833,-0.621771 -0.3519,-0.198437 -0.70644,-0.383646 -1.05833,-0.566208 -0.3519,-0.182563 -0.70644,-0.354542 -1.05834,-0.529167 -0.35189,-0.174625 -0.70643,-0.362479 -1.05833,-0.523875 -0.3519,-0.161396 -0.70644,-0.28575 -1.05833,-0.439208 -0.3519,-0.153459 -0.70644,-0.330729 -1.05834,-0.47625 -0.35189,-0.145521 -0.70643,-0.259292 -1.05833,-0.391584 -0.3519,-0.132291 -0.70644,-0.275166 -1.05833,-0.407458 -0.3519,-0.132292 -0.70644,-0.261937 -1.05834,-0.386292 -0.35189,-0.121708 -0.70643,-0.235479 -1.05833,-0.351895 -0.3519,-0.116417 -0.70644,-0.238125 -1.05833,-0.351896 -0.3519,-0.116417 -0.70644,-0.235479 -1.05834,-0.338667 -0.35189,-0.103187 -0.70643,-0.185208 -1.05833,-0.283104 -0.3519,-0.100542 -0.70644,-0.219604 -1.05833,-0.314854 -0.3519,-0.0979 -0.70644,-0.179917 -1.05834,-0.267229 -0.35189,-0.08467 -0.70643,-0.174625 -1.05833,-0.248709 -0.3519,-0.07673 -0.70644,-0.148166 -1.05833,-0.209021 -0.3519,-0.06085 -0.70644,-0.09525 -1.05834,-0.153458 -0.35189,-0.06085 -0.70643,-0.137583 -1.05833,-0.198437 -0.3519,-0.0635 -0.70644,-0.121709 -1.05833,-0.177271 -0.3519,-0.05556 -0.70644,-0.0926 -1.05834,-0.153459 -0.351895,-0.0635 -0.706437,-0.142875 -1.058332,-0.214312 -0.351896,-0.07144 -0.706438,-0.166688 -1.058334,-0.211667 -0.351895,-0.04498 -0.706437,-0.03969 -1.058333,-0.05292 -0.351896,-0.01323 -0.706437,0.01323 -1.058333,-0.02117 -0.351896,-0.0344 -0.706438,-0.150813 -1.058334,-0.1905 -0.351895,-0.03969 -0.706437,-0.04498 -1.058333,-0.05292 -0.351896,-0.0079 -0.706437,0 -1.058333,0 -0.351896,0 -0.706438,0 -1.058334,0 -0.351895,0 -0.706437,0 -1.058333,0 -0.351896,0 -0.706437,0 -1.058333,0 -0.351896,0 -0.706438,0 -1.058334,0 -0.351895,0 -0.706437,0 -1.058333,0 -0.351896,0 -0.706437,0 -1.058333,0 -0.351896,0 -0.706438,0 -1.058333,0 -0.351896,0 -0.706438,0 -1.058334,0 -0.351896,0 -0.706437,-0.0026 -1.058333,0 -0.351896,0.0026 -0.754063,-0.02381 -1.058333,0.0079 -0.304271,0.03175 -0.547688,0.0026 -0.764646,0.177271 z"
       fill="#5154b4"
       fill-rule="evenodd"
       id="path1"
       style="fill:#ffffff;fill-opacity:1;stroke-width:0.264583" />
    <path
       d="m 97.279619,41.193622 c -0.21961,0.03704 -0.70644,0.113771 -1.05834,0.177271 -0.35189,0.06085 -0.70643,0.129646 -1.05833,0.203729 -0.3519,0.07144 -0.70644,0.129646 -1.05833,0.227542 -0.3519,0.0979 -0.70644,0.216958 -1.05834,0.351896 -0.35189,0.134937 -0.70643,0.298979 -1.05833,0.457729 -0.3519,0.161396 -0.70644,0.322791 -1.05833,0.497416 -0.3519,0.174625 -0.70644,0.336021 -1.05834,0.545042 -0.35189,0.211667 -0.70908,0.457729 -1.05833,0.719667 -0.34925,0.259291 -0.7276,0.5715 -1.03717,0.846666 -0.30956,0.275167 -0.56091,0.52123 -0.81227,0.801688 -0.254,0.277812 -0.47096,0.584729 -0.70908,0.873125 -0.23813,0.291042 -0.47096,0.550333 -0.71967,0.862542 -0.24871,0.312208 -0.5371,0.661458 -0.77258,1.005416 -0.23548,0.343959 -0.4445,0.706438 -0.64029,1.058334 -0.19579,0.351895 -0.36248,0.706437 -0.53446,1.058333 -0.17198,0.351896 -0.34925,0.706437 -0.49213,1.058333 -0.14287,0.351896 -0.26193,0.706438 -0.36512,1.058334 -0.10583,0.351895 -0.18785,0.706437 -0.26723,1.058333 -0.0794,0.351896 -0.16404,0.706437 -0.21167,1.058333 -0.0476,0.351896 -0.0344,0.706438 -0.0741,1.058333 -0.037,0.351896 -0.13229,0.706438 -0.15875,1.058334 -0.0265,0.351896 -0.0265,0.706437 0,1.058333 0.0265,0.351896 0.12435,0.706438 0.15875,1.058333 0.0344,0.351896 0.003,0.706438 0.0423,1.058334 0.0397,0.351896 0.127,0.706437 0.19844,1.058333 0.0688,0.351896 0.12965,0.706438 0.22754,1.058333 0.0979,0.351896 0.21696,0.706438 0.3519,1.058334 0.13494,0.351896 0.28575,0.706437 0.46037,1.058333 0.17463,0.351896 0.38894,0.706438 0.59267,1.058333 0.20373,0.351896 0.41275,0.706438 0.63235,1.058334 0.21961,0.351895 0.44186,0.706437 0.69321,1.058333 0.24871,0.351896 0.50271,0.706437 0.81227,1.058333 0.30957,0.351896 0.68792,0.727604 1.03717,1.053042 0.34925,0.322792 0.70644,0.616479 1.05833,0.894292 0.3519,0.280458 0.70644,0.534458 1.05834,0.78052 0.35189,0.248709 0.70643,0.492125 1.05833,0.706438 0.3519,0.214312 0.70644,0.415396 1.05833,0.584729 0.3519,0.166688 0.70644,0.28575 1.05834,0.423333 0.35189,0.137584 0.70643,0.288396 1.05833,0.402167 0.3519,0.113771 0.70644,0.195792 1.05833,0.280458 0.3519,0.08202 0.70644,0.145521 1.05834,0.211667 0.35189,0.06879 0.70643,0.161396 1.05833,0.198438 0.3519,0.03704 0.70644,0.01852 1.05833,0.02117 0.3519,0.0026 0.70644,0 1.05834,0 0.35189,0 0.70643,0.0079 1.05833,0 0.351901,-0.0079 0.706441,-0.01058 1.058331,-0.05292 0.3519,-0.04233 0.70644,-0.132292 1.05834,-0.195792 0.35189,-0.06615 0.70643,-0.113771 1.05833,-0.198438 0.3519,-0.08467 0.70644,-0.201083 1.05833,-0.314854 0.3519,-0.113771 0.70644,-0.219604 1.05834,-0.367771 0.35189,-0.150812 0.70643,-0.341312 1.05833,-0.523875 0.3519,-0.182562 0.70644,-0.357187 1.05833,-0.566208 0.3519,-0.211667 0.70644,-0.4445 1.05834,-0.693208 0.35189,-0.246063 0.71437,-0.518584 1.05833,-0.791104 0.34396,-0.272521 0.69321,-0.537105 1.00542,-0.846667 0.3122,-0.309563 0.57414,-0.661458 0.86254,-1.005417 0.28575,-0.343958 0.59796,-0.706437 0.85989,-1.058333 0.26194,-0.351896 0.48948,-0.706438 0.70644,-1.058333 0.21696,-0.351896 0.41275,-0.706438 0.60061,-1.058334 0.1852,-0.351895 0.36247,-0.706437 0.51329,-1.058333 0.15081,-0.351896 0.26723,-0.706437 0.39158,-1.058333 0.12171,-0.351896 0.24871,-0.706438 0.34925,-1.058334 0.10319,-0.351895 0.18785,-0.706437 0.26723,-1.058333 0.0794,-0.351896 0.16669,-0.706437 0.21167,-1.058333 0.045,-0.351896 0.045,-0.706438 0.0529,-1.058334 0.008,-0.351895 0,-0.706437 0,-1.058333 0,-0.351896 0,-0.706437 0,-1.058333 0,-0.351896 0.0159,-0.706438 -0.003,-1.058334 -0.0159,-0.351895 -0.0476,-0.706437 -0.10054,-1.058333 -0.0529,-0.351896 -0.12436,-0.706437 -0.20903,-1.058333 -0.0847,-0.351896 -0.1905,-0.706438 -0.30427,-1.058333 -0.11641,-0.351896 -0.25135,-0.706438 -0.38629,-1.058334 -0.13494,-0.351896 -0.26458,-0.706437 -0.42333,-1.058333 -0.15875,-0.351896 -0.33602,-0.706438 -0.52917,-1.058333 -0.19314,-0.351896 -0.41275,-0.706438 -0.635,-1.058334 -0.22225,-0.351896 -0.43656,-0.714375 -0.69321,-1.058333 -0.25664,-0.343958 -0.55562,-0.693208 -0.84931,-1.005417 -0.29104,-0.312208 -0.57414,-0.550333 -0.89958,-0.867833 -0.32809,-0.3175 -0.70115,-0.717021 -1.05304,-1.029229 -0.3519,-0.314854 -0.70644,-0.611188 -1.05834,-0.844021 -0.35189,-0.235479 -0.70643,-0.367771 -1.05833,-0.558271 -0.3519,-0.1905 -0.70644,-0.407458 -1.05833,-0.582083 -0.3519,-0.174625 -0.70644,-0.320146 -1.05834,-0.460375 -0.35189,-0.140229 -0.70643,-0.269875 -1.05833,-0.386292 -0.3519,-0.113771 -0.70644,-0.219604 -1.05833,-0.304271 -0.3519,-0.08467 -0.70644,-0.153458 -1.05834,-0.209021 -0.35189,-0.05556 -0.70643,-0.07144 -1.05833,-0.121708 -0.3519,-0.05292 -0.70644,-0.153458 -1.058331,-0.193146 -0.3519,-0.03969 -0.70644,-0.05292 -1.05834,-0.05292 -0.35189,0 -0.83873,0.03439 -1.05833,0.05292 -0.2196,0.01588 -0.045,0.01323 -0.26458,0.05027 z m -0.79375,4.823354 c 0.30956,-0.05292 0.70643,-0.129646 1.05833,-0.15875 0.3519,-0.02646 0.70644,-0.0053 1.05833,-0.0053 0.3519,0 0.70644,-0.0079 1.05834,0 0.351891,0.0079 0.706431,0.0026 1.058331,0.05292 0.3519,0.05027 0.70644,0.148167 1.05833,0.246063 0.3519,0.09525 0.70644,0.195791 1.05834,0.333375 0.35189,0.140229 0.70643,0.3175 1.05833,0.492125 0.3519,0.177271 0.70644,0.357187 1.05833,0.566208 0.3519,0.211667 0.70644,0.441854 1.05834,0.693208 0.35189,0.248709 0.71437,0.502709 1.05833,0.812271 0.34131,0.309563 0.72231,0.687917 1.00012,1.037167 0.27517,0.34925 0.4445,0.706437 0.65617,1.058333 0.21431,0.351896 0.43127,0.706438 0.62177,1.058334 0.1905,0.351895 0.38365,0.706437 0.52652,1.058333 0.14552,0.351896 0.23813,0.706437 0.33602,1.058333 0.0979,0.351896 0.17727,0.706438 0.25136,1.058333 0.0767,0.351896 0.1561,0.706438 0.20902,1.058334 0.0503,0.351896 0.0847,0.706437 0.10054,1.058333 0.0185,0.351896 0.0185,0.706438 0,1.058333 -0.0159,0.351896 -0.0397,0.706438 -0.10054,1.058334 -0.0635,0.351896 -0.16404,0.706437 -0.26458,1.058333 -0.10055,0.351896 -0.21167,0.706438 -0.33867,1.058333 -0.127,0.351896 -0.25929,0.706438 -0.42333,1.058334 -0.16405,0.351896 -0.34661,0.706437 -0.56092,1.058333 -0.21696,0.351896 -0.47361,0.706438 -0.73819,1.058333 -0.26458,0.351896 -0.54769,0.709084 -0.84931,1.058334 -0.30163,0.34925 -0.62177,0.727604 -0.95779,1.037166 -0.33338,0.306917 -0.70379,0.568854 -1.05569,0.812271 -0.3519,0.246063 -0.70644,0.468313 -1.05833,0.656167 -0.3519,0.185208 -0.70644,0.3175 -1.05834,0.460375 -0.35189,0.140229 -0.70643,0.269875 -1.05833,0.386291 -0.3519,0.113771 -0.70644,0.230188 -1.05833,0.29898 -0.3519,0.06615 -0.70644,0.05556 -1.05834,0.105833 -0.351891,0.05027 -0.706431,0.164042 -1.058331,0.1905 -0.3519,0.02646 -0.70644,0.0053 -1.05833,-0.03175 -0.3519,-0.03704 -0.70644,-0.137583 -1.05834,-0.193146 -0.35189,-0.05292 -0.70643,-0.05027 -1.05833,-0.127 -0.3519,-0.07673 -0.70644,-0.209021 -1.05833,-0.333375 -0.3519,-0.127 -0.70644,-0.264583 -1.05834,-0.423333 -0.35189,-0.15875 -0.70643,-0.333375 -1.05833,-0.529167 -0.3519,-0.195792 -0.70644,-0.388937 -1.05833,-0.642937 -0.3519,-0.254 -0.71438,-0.558271 -1.05834,-0.878417 -0.34395,-0.322792 -0.70379,-0.701146 -1.00541,-1.053042 -0.30163,-0.351895 -0.56621,-0.706437 -0.80963,-1.058333 -0.24077,-0.351896 -0.43391,-0.706437 -0.635,-1.058333 -0.20108,-0.351896 -0.41804,-0.706438 -0.56885,-1.058334 -0.15081,-0.351895 -0.22754,-0.706437 -0.33602,-1.058333 -0.10848,-0.351896 -0.22225,-0.706437 -0.31486,-1.058333 -0.0953,-0.351896 -0.19579,-0.706438 -0.24606,-1.058334 -0.0503,-0.351895 -0.045,-0.706437 -0.0529,-1.058333 -0.008,-0.351896 -0.0212,-0.706437 0.005,-1.058333 0.0291,-0.351896 0.0979,-0.706438 0.15875,-1.058334 0.0608,-0.351895 0.11377,-0.706437 0.20902,-1.058333 0.0953,-0.351896 0.24341,-0.706437 0.36512,-1.058333 0.11906,-0.351896 0.22225,-0.706438 0.35719,-1.058333 0.13229,-0.351896 0.25664,-0.706438 0.4445,-1.058334 0.18785,-0.351896 0.43656,-0.714375 0.67998,-1.058333 0.24341,-0.343958 0.51858,-0.709083 0.77523,-1.005417 0.254,-0.293687 0.46831,-0.505354 0.762,-0.762 0.29633,-0.259291 0.66146,-0.521229 1.00541,-0.780521 0.34396,-0.259291 0.70644,-0.547687 1.05834,-0.772583 0.35189,-0.224896 0.70643,-0.402167 1.05833,-0.582083 0.3519,-0.177271 0.70644,-0.354542 1.05833,-0.492125 0.3519,-0.134938 0.74877,-0.240771 1.05834,-0.320146 0.30956,-0.07937 0.48418,-0.0979 0.79375,-0.148167 z"
       fill="#5154b4"
       fill-rule="evenodd"
       id="path2"
       style="fill:#ffffff;fill-opacity:1;stroke-width:0.264583" />
    <path
       d="m 97.015029,30.610289 c -0.2196,0.0344 -0.70643,0.127 -1.05833,0.156104 -0.3519,0.02646 -0.70644,-0.01588 -1.05833,0.01058 -0.3519,0.0291 -0.70644,0.0979 -1.05834,0.15875 -0.35189,0.05821 -0.70643,0.132292 -1.05833,0.201084 -0.3519,0.06879 -0.70644,0.134937 -1.05833,0.211666 -0.3519,0.07673 -0.70644,0.156105 -1.05834,0.251355 -0.35189,0.0926 -0.70643,0.214312 -1.05833,0.314854 -0.3519,0.0979 -0.70644,0.182562 -1.05833,0.283104 -0.3519,0.100542 -0.70644,0.22225 -1.05834,0.322792 -0.35189,0.100541 -0.70643,0.17727 -1.05833,0.28575 -0.3519,0.105833 -0.70644,0.22225 -1.05833,0.351895 -0.3519,0.129646 -0.70644,0.277813 -1.05834,0.423334 -0.35189,0.142875 -0.70643,0.275166 -1.05833,0.436562 -0.3519,0.161396 -0.70644,0.34925 -1.05833,0.523875 -0.3519,0.174625 -0.70644,0.351896 -1.05834,0.529167 -0.35189,0.177271 -0.70643,0.346604 -1.05833,0.529167 -0.3519,0.182562 -0.70644,0.365125 -1.05833,0.566208 -0.3519,0.201083 -0.70644,0.418042 -1.05834,0.635 -0.35189,0.219604 -0.70643,0.4445 -1.05833,0.672042 -0.3519,0.230187 -0.70644,0.46302 -1.05833,0.706437 -0.3519,0.246063 -0.70644,0.510646 -1.05834,0.762 -0.35189,0.248708 -0.70643,0.489479 -1.05833,0.740833 -0.3519,0.254 -0.70644,0.523875 -1.05833,0.775229 -0.3519,0.251355 -0.70644,0.47625 -1.05834,0.740834 -0.35189,0.264583 -0.70643,0.574146 -1.05833,0.846666 -0.3519,0.272521 -0.70644,0.542396 -1.05833,0.79375 -0.3519,0.251355 -0.70644,0.47625 -1.05834,0.719667 -0.35189,0.243417 -0.70643,0.484188 -1.05833,0.740833 -0.3519,0.254 -0.70644,0.531813 -1.05833,0.791105 -0.3519,0.259291 -0.70644,0.515937 -1.05834,0.762 -0.35189,0.243416 -0.70643,0.470958 -1.05833,0.706437 -0.3519,0.235479 -0.70644,0.470958 -1.05833,0.703792 -0.3519,0.235479 -0.70644,0.484187 -1.05834,0.701146 -0.35189,0.216958 -0.70643,0.410104 -1.05833,0.600604 -0.3519,0.187854 -0.70644,0.351896 -1.05833,0.529166 -0.3519,0.177271 -0.70644,0.351896 -1.05834,0.529167 -0.35189,0.177271 -0.70643,0.362479 -1.05833,0.529167 -0.3519,0.164041 -0.70644,0.309562 -1.05833,0.463021 -0.3519,0.153458 -0.70644,0.30427 -1.05834,0.46302 -0.35189,0.161396 -0.70643,0.338667 -1.05833,0.492125 -0.3519,0.153459 -0.70644,0.288396 -1.05833,0.423334 -0.3519,0.134937 -0.70644,0.261937 -1.05834,0.386291 -0.35189,0.121709 -0.70643,0.23548 -1.05833,0.351896 -0.3519,0.116417 -0.70644,0.243417 -1.05833,0.346604 -0.3519,0.105834 -0.70644,0.1905 -1.05834,0.280459 -0.35189,0.08996 -0.70643,0.17727 -1.05833,0.264583 -0.3519,0.08731 -0.70644,0.177271 -1.05833,0.264583 -0.3519,0.08731 -0.70644,0.185209 -1.05834,0.264584 -0.35189,0.07937 -0.70643,0.142875 -1.05833,0.211666 -0.3519,0.07144 -0.70644,0.142875 -1.05833,0.203729 -0.3519,0.0635 -0.70644,0.129646 -1.05834,0.177271 -0.35189,0.04762 -0.70643,0.0635 -1.05833,0.108479 -0.3519,0.04498 -0.70644,0.105834 -1.05833,0.156105 -0.3519,0.05292 -0.70644,0.09525 -1.05834,0.153458 -0.35189,0.05821 -0.70643,0.142875 -1.05833,0.195792 -0.351895,0.05292 -0.706437,0.07408 -1.058333,0.121708 -0.351895,0.04498 -0.706437,0.127 -1.058333,0.156104 -0.351896,0.02646 -0.706437,0.0053 -1.058333,0.0053 -0.351896,0 -0.706438,-0.0079 -1.058334,0 -0.351895,0.0079 -0.706437,0.01323 -1.058333,0.05292 -0.351896,0.03969 -0.706437,0.156105 -1.058333,0.1905 -0.351896,0.0344 -0.706438,0.01852 -1.058334,0.02117 -0.351895,0.0026 -0.706437,0 -1.058333,0 -0.351896,0 -0.706437,0 -1.058333,0 -0.351896,0 -0.706438,0 -1.058334,0 -0.351895,0 -0.706437,0 -1.058333,0 -0.351896,0 -0.706437,0 -1.058333,0 -0.351896,0 -0.706438,0 -1.058333,0 -0.351896,0 -0.706438,0 -1.058334,0 -0.351896,0 -0.706437,0 -1.058333,0 -0.351896,0 -0.706438,-0.0026 -1.058333,0 -0.351896,0.0026 -0.735542,-0.04233 -1.055688,0.02381 -0.322792,0.06615 -0.6985,0.156104 -0.875771,0.373062 -0.177271,0.216958 -0.153458,0.597958 -0.182562,0.928688 -0.03175,0.330729 -0.0079,0.703791 -0.0026,1.055687 0.0053,0.351896 -0.0635,0.754063 0.0291,1.050396 0.0926,0.293687 0.269875,0.584729 0.529167,0.719667 0.259291,0.132291 0.682625,0.06879 1.029229,0.08202 0.346604,0.01323 0.706437,0 1.058333,0 0.351896,0 0.706438,0 1.058334,0 0.351895,0 0.706437,0 1.058333,0 0.351896,0 0.706437,0 1.058333,0 0.351896,0 0.706438,0 1.058333,0 0.351896,0 0.706438,0 1.058334,0 0.351896,0 0.706437,0 1.058333,0 0.351896,0 0.706438,0 1.058333,0 0.351896,0 0.706438,-0.02117 1.058334,0.0053 0.351896,0.0291 0.706437,0.113771 1.058333,0.156104 0.351896,0.04233 0.706438,0.08467 1.058333,0.100542 0.351896,0.01852 0.706438,0.0026 1.058334,0.0026 0.351896,0 0.706437,0 1.058333,0 0.351896,0 0.706438,-0.0026 1.058333,0 0.351896,0.0026 0.706438,-0.01323 1.058334,0.02117 0.351896,0.0344 0.706437,0.145521 1.058333,0.1905 0.351896,0.04498 0.706434,0.0291 1.058334,0.07408 0.35189,0.04498 0.70643,0.142875 1.05833,0.1905 0.3519,0.05027 0.70644,0.05292 1.05833,0.105833 0.3519,0.05292 0.70644,0.140229 1.05834,0.211667 0.35189,0.07144 0.70643,0.148166 1.05833,0.219604 0.3519,0.06879 0.70644,0.145521 1.05833,0.206375 0.3519,0.06085 0.70644,0.08731 1.05834,0.153458 0.35189,0.06879 0.70643,0.166688 1.05833,0.246063 0.3519,0.07937 0.70644,0.150812 1.05833,0.232833 0.3519,0.08202 0.70644,0.177271 1.05834,0.264583 0.35189,0.08731 0.70643,0.169334 1.05833,0.264584 0.3519,0.0979 0.70644,0.211666 1.05833,0.3175 0.3519,0.103187 0.70644,0.209021 1.05834,0.309562 0.35189,0.0979 0.70643,0.169334 1.05833,0.28575 0.3519,0.113771 0.70644,0.264584 1.05833,0.410104 0.3519,0.145521 0.70644,0.309563 1.05834,0.460375 0.35189,0.148167 0.70643,0.280459 1.05833,0.436563 0.3519,0.156104 0.70644,0.322792 1.05833,0.492125 0.3519,0.169333 0.70644,0.351896 1.05834,0.529167 0.35189,0.17727 0.70643,0.341312 1.05833,0.534458 0.3519,0.193146 0.70644,0.418041 1.05833,0.619125 0.3519,0.201083 0.70644,0.367771 1.05834,0.587375 0.35189,0.216958 0.70643,0.492125 1.05833,0.722312 0.3519,0.227542 0.70644,0.425979 1.05833,0.650875 0.3519,0.224896 0.70644,0.465667 1.05834,0.701146 0.35189,0.232833 0.70643,0.463021 1.05833,0.703792 0.3519,0.240771 0.70644,0.489479 1.05833,0.738187 0.3519,0.251354 0.70644,0.508 1.05834,0.762 0.35189,0.254 0.70643,0.502709 1.05833,0.762 0.3519,0.259292 0.70644,0.537104 1.05833,0.791104 0.3519,0.256646 0.70644,0.500063 1.05834,0.740834 0.35189,0.240771 0.70643,0.463021 1.05833,0.703791 0.3519,0.240771 0.70644,0.48948 1.05833,0.738188 0.3519,0.251354 0.70644,0.515937 1.05834,0.762 0.35189,0.243417 0.70643,0.470958 1.05833,0.706437 0.3519,0.23548 0.70644,0.47625 1.05833,0.703792 0.3519,0.224896 0.70644,0.431271 1.05834,0.650875 0.35189,0.219604 0.70643,0.452438 1.05833,0.672042 0.3519,0.219604 0.70644,0.447145 1.05833,0.650875 0.3519,0.201083 0.70644,0.394229 1.05834,0.568854 0.35189,0.174625 0.70643,0.312208 1.05833,0.478896 0.3519,0.169333 0.70644,0.365125 1.05833,0.523875 0.3519,0.15875 0.70644,0.288395 1.05834,0.423333 0.35189,0.134937 0.70643,0.261937 1.05833,0.386292 0.3519,0.121708 0.70644,0.232833 1.05833,0.357187 0.3519,0.124354 0.70644,0.267229 1.05834,0.388938 0.35189,0.121708 0.70643,0.235479 1.05833,0.333375 0.3519,0.100541 0.70644,0.179916 1.05833,0.267229 0.3519,0.08467 0.70644,0.174625 1.05834,0.248708 0.35189,0.07673 0.70643,0.148167 1.05833,0.209021 0.3519,0.06085 0.70644,0.0926 1.05833,0.153458 0.3519,0.0635 0.70644,0.142875 1.05834,0.214313 0.35189,0.07144 0.70643,0.166687 1.05833,0.211666 0.3519,0.04498 0.70644,0.02911 1.05833,0.05292 0.3519,0.02646 0.70644,0.06085 1.05834,0.103188 0.35189,0.04233 0.70643,0.127 1.05833,0.156104 0.3519,0.02646 0.70644,0.0053 1.05833,0.0053 0.3519,0 0.70644,0 1.05834,0 0.351891,0 0.706431,0.02117 1.058331,-0.0053 0.3519,-0.0291 0.70644,-0.113771 1.05833,-0.156104 0.3519,-0.04233 0.70644,-0.06879 1.05834,-0.103188 0.35189,-0.0344 0.70643,-0.05821 1.05833,-0.103187 0.3519,-0.04498 0.70644,-0.10848 1.05833,-0.161396 0.3519,-0.05292 0.70644,-0.100542 1.05834,-0.164042 0.35189,-0.06085 0.70643,-0.127 1.05833,-0.203729 0.3519,-0.07673 0.70644,-0.171979 1.05833,-0.259292 0.3519,-0.08731 0.70644,-0.174625 1.05834,-0.264583 0.35189,-0.08996 0.70643,-0.169333 1.05833,-0.269875 0.3519,-0.100542 0.70644,-0.22225 1.05833,-0.338667 0.3519,-0.116416 0.70644,-0.227541 1.05834,-0.357187 0.35189,-0.129646 0.70643,-0.277813 1.05833,-0.423334 0.3519,-0.142875 0.70644,-0.28575 1.05833,-0.433916 0.3519,-0.150813 0.70644,-0.306917 1.05834,-0.460375 0.35189,-0.153459 0.70643,-0.298979 1.05833,-0.463021 0.3519,-0.166688 0.70644,-0.34925 1.05833,-0.529167 0.3519,-0.179916 0.70644,-0.34925 1.05834,-0.545041 0.35189,-0.195792 0.70643,-0.420688 1.05833,-0.635 0.3519,-0.214313 0.70644,-0.425979 1.05833,-0.650875 0.3519,-0.227542 0.70644,-0.468313 1.05834,-0.703792 0.35189,-0.235479 0.70643,-0.463021 1.05833,-0.706437 0.3519,-0.246063 0.70644,-0.510646 1.05833,-0.762 0.3519,-0.248709 0.71438,-0.48948 1.05834,-0.740834 0.34395,-0.254 0.6932,-0.531812 1.00541,-0.775229 0.31221,-0.243417 0.55034,-0.455083 0.86784,-0.687917 0.3175,-0.232833 0.68791,-0.457729 1.03716,-0.709083 0.34925,-0.248708 0.70644,-0.521229 1.05834,-0.791104 0.35189,-0.269875 0.70643,-0.563563 1.05833,-0.822854 0.3519,-0.261938 0.70644,-0.505354 1.05833,-0.740834 0.3519,-0.235479 0.70644,-0.441854 1.05834,-0.672041 0.35189,-0.230188 0.70643,-0.473604 1.05833,-0.706438 0.3519,-0.232833 0.70644,-0.470958 1.05833,-0.690562 0.3519,-0.219604 0.70644,-0.420688 1.05834,-0.632354 0.35189,-0.211667 0.70643,-0.423334 1.05833,-0.629709 0.3519,-0.209021 0.70644,-0.428625 1.05833,-0.621771 0.3519,-0.193145 0.70644,-0.357187 1.05834,-0.534458 0.35189,-0.177271 0.70643,-0.354541 1.05833,-0.529166 0.3519,-0.174625 0.70644,-0.36248 1.05833,-0.523875 0.3519,-0.161396 0.70644,-0.283105 1.05834,-0.439209 0.35189,-0.156104 0.70643,-0.333375 1.05833,-0.492125 0.3519,-0.156104 0.70644,-0.322791 1.05833,-0.457729 0.3519,-0.134937 0.70644,-0.243417 1.05834,-0.351896 0.35189,-0.111125 0.70643,-0.182562 1.05833,-0.301625 0.3519,-0.116416 0.70644,-0.28575 1.05833,-0.404812 0.3519,-0.116417 0.70644,-0.198438 1.05834,-0.301625 0.35189,-0.103188 0.70643,-0.216959 1.05833,-0.3175 0.3519,-0.0979 0.70644,-0.195792 1.05833,-0.277813 0.3519,-0.08202 0.70644,-0.142875 1.05834,-0.211666 0.35189,-0.07144 0.70643,-0.14023 1.05833,-0.20373 0.3519,-0.06614 0.70644,-0.111125 1.05833,-0.185208 0.3519,-0.07144 0.70644,-0.187854 1.05834,-0.256646 0.35189,-0.06879 0.70643,-0.0926 1.05833,-0.153458 0.3519,-0.0635 0.70644,-0.142875 1.05833,-0.214313 0.3519,-0.07144 0.70644,-0.166687 1.05834,-0.211666 0.35189,-0.04498 0.70643,-0.0291 1.05833,-0.05292 0.35189,-0.02646 0.70644,-0.06085 1.05833,-0.103187 0.3519,-0.04233 0.70644,-0.127 1.05834,-0.156105 0.35189,-0.02646 0.70643,-0.0053 1.05833,-0.0053 0.35189,0 0.70644,0 1.05833,0 0.3519,0 0.70644,0 1.05834,0 0.35189,0 0.70643,0.0026 1.05833,0 0.35189,-0.0026 0.70644,0.01323 1.05833,-0.02117 0.3519,-0.0344 0.70644,-0.150812 1.05834,-0.1905 0.35189,-0.03969 0.70643,-0.04498 1.05833,-0.05292 0.35189,-0.0079 0.70644,0 1.05833,0 0.3519,0 0.70644,0 1.05834,0 0.35189,0 0.70643,0 1.05833,0 0.35189,0 0.70644,0 1.05833,0 0.3519,0 0.70644,0 1.05834,0 0.35189,0 0.70643,0 1.05833,0 0.35189,0 0.70644,0.0053 1.05833,0 0.3519,-0.0053 0.75142,0.0635 1.0504,-0.0291 0.29898,-0.0926 0.5715,-0.269875 0.74083,-0.529166 0.16933,-0.259292 0.23283,-0.682625 0.26988,-1.02923 0.037,-0.346604 0,-0.714375 -0.0476,-1.058333 -0.0476,-0.341312 -0.0767,-0.743479 -0.23812,-0.997479 -0.15875,-0.254 -0.42863,-0.431271 -0.72496,-0.529167 -0.29634,-0.0979 -0.6985,-0.05027 -1.0504,-0.06085 -0.35189,-0.01058 -0.70644,0 -1.05833,0 -0.3519,0 -0.70644,0 -1.05833,0 -0.3519,0 -0.70644,0 -1.05834,0 -0.35189,0 -0.70644,0 -1.05833,0 -0.3519,0 -0.70644,0 -1.05833,0 -0.3519,0 -0.70644,0 -1.05834,0 -0.35189,0 -0.70644,0 -1.05833,0 -0.3519,0 -0.70644,0 -1.05833,0 -0.3519,0 -0.70644,0 -1.05834,0 -0.35189,0 -0.70644,0.01588 -1.05833,-0.0026 -0.3519,-0.01588 -0.70644,-0.05821 -1.05833,-0.100541 -0.3519,-0.04233 -0.70644,-0.127 -1.05834,-0.156105 -0.35189,-0.02646 -0.70644,0.01058 -1.05833,-0.0079 -0.3519,-0.01588 -0.70644,-0.05821 -1.05833,-0.100542 -0.3519,-0.04233 -0.70644,-0.124354 -1.05834,-0.156104 -0.35189,-0.0291 -0.70644,0.01058 -1.05833,-0.02646 -0.3519,-0.03704 -0.70644,-0.134938 -1.05833,-0.193146 -0.3519,-0.05556 -0.70644,-0.0979 -1.05834,-0.153458 -0.35189,-0.05556 -0.70643,-0.113771 -1.05833,-0.177271 -0.3519,-0.06085 -0.70644,-0.134938 -1.05833,-0.203729 -0.3519,-0.06879 -0.70644,-0.137584 -1.05834,-0.209021 -0.35189,-0.06879 -0.70643,-0.127 -1.05833,-0.203729 -0.3519,-0.07673 -0.70644,-0.17198 -1.05833,-0.259292 -0.3519,-0.08731 -0.70644,-0.182563 -1.05834,-0.264583 -0.35189,-0.07937 -0.70643,-0.127 -1.05833,-0.214313 -0.3519,-0.08731 -0.70644,-0.195792 -1.05833,-0.304271 -0.3519,-0.111125 -0.70644,-0.24077 -1.05834,-0.354541 -0.35189,-0.111125 -0.70643,-0.214313 -1.05833,-0.320146 -0.3519,-0.103188 -0.70644,-0.182563 -1.05833,-0.301625 -0.3519,-0.121708 -0.70644,-0.288396 -1.05834,-0.420688 -0.35189,-0.132291 -0.70643,-0.235479 -1.05833,-0.373062 -0.3519,-0.137583 -0.70644,-0.304271 -1.05833,-0.455083 -0.3519,-0.148167 -0.70644,-0.280459 -1.05834,-0.436563 -0.35189,-0.156104 -0.70643,-0.322792 -1.05833,-0.492125 -0.3519,-0.169333 -0.70644,-0.351896 -1.05833,-0.529167 -0.3519,-0.17727 -0.70644,-0.341312 -1.05834,-0.534458 -0.35189,-0.193146 -0.70643,-0.410104 -1.05833,-0.621771 -0.3519,-0.209021 -0.70644,-0.415396 -1.05833,-0.635 -0.3519,-0.219604 -0.70644,-0.465666 -1.05834,-0.685271 -0.35189,-0.219604 -0.70643,-0.418041 -1.05833,-0.637645 -0.3519,-0.219605 -0.70644,-0.45773 -1.05833,-0.685271 -0.3519,-0.230188 -0.70644,-0.433917 -1.05834,-0.685271 -0.35189,-0.251354 -0.70643,-0.560917 -1.05833,-0.822854 -0.3519,-0.261938 -0.70644,-0.486834 -1.05833,-0.746125 -0.3519,-0.256646 -0.70644,-0.531813 -1.05834,-0.806979 -0.35189,-0.275167 -0.70643,-0.568855 -1.05833,-0.844021 -0.3519,-0.272521 -0.70644,-0.529167 -1.05833,-0.79375 -0.3519,-0.264584 -0.70644,-0.537104 -1.05834,-0.79375 -0.35189,-0.256646 -0.70643,-0.505354 -1.05833,-0.746125 -0.3519,-0.243417 -0.70644,-0.457729 -1.05833,-0.714375 -0.3519,-0.254 -0.70644,-0.552979 -1.05834,-0.822854 -0.35189,-0.267229 -0.70643,-0.550334 -1.05833,-0.788459 -0.3519,-0.235479 -0.70644,-0.425979 -1.05833,-0.635 -0.3519,-0.211666 -0.70644,-0.433916 -1.05834,-0.62177 -0.35189,-0.185209 -0.70643,-0.336021 -1.05833,-0.497417 -0.3519,-0.161396 -0.70644,-0.304271 -1.05833,-0.470958 -0.3519,-0.164042 -0.70644,-0.36248 -1.05834,-0.52123 -0.35189,-0.161395 -0.70643,-0.291041 -1.05833,-0.433916 -0.3519,-0.142875 -0.70644,-0.28575 -1.05833,-0.428625 -0.3519,-0.140229 -0.70644,-0.291042 -1.05834,-0.415396 -0.35189,-0.124354 -0.70643,-0.216958 -1.05833,-0.330729 -0.3519,-0.116417 -0.70644,-0.261938 -1.05833,-0.359834 -0.3519,-0.100541 -0.70644,-0.142875 -1.05834,-0.235479 -0.35189,-0.0926 -0.70643,-0.216958 -1.05833,-0.312208 -0.3519,-0.0979 -0.70644,-0.179917 -1.05833,-0.267229 -0.3519,-0.08731 -0.70644,-0.179917 -1.05834,-0.264584 -0.35189,-0.08467 -0.70643,-0.17727 -1.05833,-0.246062 -0.3519,-0.06615 -0.70644,-0.100542 -1.05833,-0.153458 -0.3519,-0.05027 -0.70644,-0.111125 -1.05834,-0.156105 -0.35189,-0.04498 -0.70643,-0.0635 -1.05833,-0.108479 -0.3519,-0.04233 -0.70644,-0.127 -1.05833,-0.156104 -0.3519,-0.02646 -0.706441,-0.0053 -1.058341,-0.0053 -0.35189,0 -0.70643,-0.0079 -1.05833,0 -0.3519,0.0079 -0.83873,0.0344 -1.05833,0.05292 -0.21961,0.01588 -0.045,0.01588 -0.26459,0.05027 z m -1.5875,4.556125 c 0.30957,-0.04233 0.70644,-0.127 1.05834,-0.156104 0.35189,-0.02646 0.70643,-0.0053 1.05833,-0.0053 0.3519,0 0.70644,0 1.05833,0 0.3519,0 0.70644,0 1.05834,0 0.351891,0 0.706431,-0.0079 1.058331,0 0.3519,0.0079 0.70644,0.01323 1.05833,0.05292 0.3519,0.03969 0.70644,0.140229 1.05834,0.193146 0.35189,0.05027 0.70643,0.07408 1.05833,0.121708 0.3519,0.04762 0.70644,0.105833 1.05833,0.161396 0.3519,0.05556 0.70644,0.09525 1.05834,0.169333 0.35189,0.07144 0.70643,0.171979 1.05833,0.261938 0.3519,0.08996 0.70644,0.166687 1.05833,0.280458 0.3519,0.113771 0.70644,0.264583 1.05834,0.402167 0.35189,0.137583 0.70643,0.280458 1.05833,0.418041 0.3519,0.137584 0.70644,0.275167 1.05833,0.407459 0.3519,0.132291 0.70644,0.24077 1.05834,0.391583 0.35189,0.150812 0.70643,0.34925 1.05833,0.508 0.3519,0.15875 0.70644,0.272521 1.05833,0.4445 0.3519,0.171979 0.70644,0.388937 1.05834,0.582083 0.35189,0.193146 0.70643,0.386292 1.05833,0.579438 0.3519,0.195791 0.70644,0.383645 1.05833,0.587375 0.3519,0.203729 0.70644,0.420687 1.05834,0.640291 0.35189,0.22225 0.70643,0.439209 1.05833,0.682625 0.3519,0.246063 0.70644,0.531813 1.05833,0.788459 0.3519,0.256645 0.70644,0.515937 1.05834,0.756708 0.35189,0.240771 0.70643,0.433917 1.05833,0.687917 0.3519,0.254 0.70644,0.560916 1.05833,0.833437 0.3519,0.272521 0.70644,0.534458 1.05834,0.799042 0.35189,0.264583 0.70643,0.515937 1.05833,0.796396 0.3519,0.277812 0.70644,0.592666 1.05833,0.873125 0.3519,0.280458 0.70644,0.555625 1.05834,0.806979 0.35189,0.254 0.70643,0.465666 1.05833,0.714375 0.3519,0.246062 0.70644,0.529166 1.05833,0.772583 0.3519,0.243417 0.70644,0.470958 1.05834,0.682625 0.35189,0.211667 0.70643,0.378354 1.05833,0.582083 0.3519,0.20373 0.70644,0.423334 1.05833,0.635 0.3519,0.211667 0.70644,0.436563 1.05834,0.635 0.35189,0.198438 0.70643,0.359834 1.05833,0.550334 0.3519,0.1905 0.70644,0.39952 1.05833,0.587375 0.3519,0.187854 0.70644,0.351895 1.05834,0.534458 0.35189,0.182562 0.70643,0.386292 1.05833,0.555625 0.3519,0.169333 0.70644,0.314854 1.05833,0.455083 0.3519,0.140229 0.70644,0.251354 1.05834,0.386292 0.35189,0.134937 0.70643,0.280458 1.05833,0.420687 0.3519,0.142875 0.70644,0.301625 1.05833,0.423334 0.3519,0.121708 0.70644,0.193146 1.05834,0.306916 0.35189,0.113771 0.70643,0.261938 1.05833,0.375709 0.3519,0.111125 0.72496,0.171979 1.05833,0.298979 0.33338,0.129646 0.82021,0.275167 0.94721,0.470958 0.127,0.195792 0.0106,0.513292 -0.1905,0.6985 -0.20373,0.185209 -0.67469,0.288396 -1.02129,0.41275 -0.3466,0.121709 -0.70644,0.214313 -1.05833,0.320146 -0.3519,0.103188 -0.70644,0.182563 -1.05834,0.301625 -0.35189,0.121708 -0.70643,0.288396 -1.05833,0.420688 -0.3519,0.132291 -0.70644,0.235479 -1.05833,0.373062 -0.3519,0.137583 -0.70644,0.304271 -1.05834,0.455083 -0.35189,0.148167 -0.70643,0.283105 -1.05833,0.436563 -0.3519,0.153458 -0.70644,0.3175 -1.05833,0.478896 -0.3519,0.15875 -0.70644,0.306916 -1.05834,0.47625 -0.35189,0.171979 -0.70643,0.357187 -1.05833,0.545041 -0.3519,0.187855 -0.70644,0.381 -1.05833,0.582084 -0.3519,0.201083 -0.70644,0.415396 -1.05834,0.624416 -0.35189,0.206375 -0.70643,0.418042 -1.05833,0.629709 -0.3519,0.211666 -0.70644,0.41275 -1.05833,0.632354 -0.3519,0.219604 -0.70644,0.449792 -1.05834,0.690562 -0.35189,0.243417 -0.70643,0.510646 -1.05833,0.762 -0.3519,0.248709 -0.70644,0.494771 -1.05833,0.738188 -0.3519,0.243416 -0.70644,0.470958 -1.05834,0.719666 -0.35189,0.248709 -0.70643,0.52123 -1.05833,0.77523 -0.3519,0.251354 -0.70644,0.486833 -1.05833,0.743479 -0.3519,0.254 -0.70644,0.526521 -1.05834,0.791104 -0.35189,0.264583 -0.70643,0.529167 -1.05833,0.79375 -0.3519,0.264583 -0.70644,0.529167 -1.05833,0.79375 -0.3519,0.264583 -0.70644,0.534458 -1.05834,0.79375 -0.35189,0.259292 -0.70643,0.518583 -1.05833,0.762 -0.3519,0.240771 -0.70644,0.468312 -1.05833,0.690562 -0.3519,0.22225 -0.70644,0.423334 -1.05834,0.637646 -0.35189,0.214313 -0.70643,0.449792 -1.05833,0.653521 -0.3519,0.203729 -0.70644,0.378354 -1.05833,0.566208 -0.3519,0.187855 -0.70644,0.378355 -1.05834,0.560917 -0.35189,0.182563 -0.70643,0.354542 -1.05833,0.529167 -0.3519,0.174625 -0.70644,0.362479 -1.05833,0.523875 -0.3519,0.161396 -0.70644,0.288396 -1.05834,0.439208 -0.35189,0.150813 -0.70643,0.338667 -1.05833,0.470958 -0.3519,0.132292 -0.70644,0.211667 -1.05833,0.322792 -0.3519,0.108479 -0.70644,0.227542 -1.05834,0.338667 -0.35189,0.108479 -0.70643,0.22225 -1.05833,0.3175 -0.3519,0.0979 -0.70644,0.179916 -1.05833,0.267229 -0.3519,0.08731 -0.70644,0.179916 -1.05834,0.264583 -0.35189,0.08467 -0.70643,0.177271 -1.05833,0.246063 -0.3519,0.06614 -0.70644,0.100541 -1.05833,0.153458 -0.3519,0.05027 -0.70644,0.111125 -1.05834,0.156104 -0.35189,0.04498 -0.70643,0.0635 -1.05833,0.108479 -0.3519,0.04233 -0.70644,0.127 -1.05833,0.156104 -0.3519,0.02646 -0.706441,0.0053 -1.058341,0.0053 -0.35189,0 -0.70643,0 -1.05833,0 -0.3519,0 -0.70644,0.02117 -1.05833,-0.0053 -0.3519,-0.0291 -0.70644,-0.11377 -1.05834,-0.156104 -0.35189,-0.04233 -0.70643,-0.07673 -1.05833,-0.103187 -0.3519,-0.02381 -0.70644,-0.0079 -1.05833,-0.05292 -0.3519,-0.04498 -0.70644,-0.137583 -1.05834,-0.211667 -0.35189,-0.07408 -0.70643,-0.150812 -1.05833,-0.232833 -0.3519,-0.08202 -0.70644,-0.171979 -1.05833,-0.264583 -0.3519,-0.0926 -0.70644,-0.195792 -1.05834,-0.296333 -0.35189,-0.100542 -0.70643,-0.187855 -1.05833,-0.301625 -0.3519,-0.116417 -0.70644,-0.261938 -1.05833,-0.388938 -0.3519,-0.127 -0.70644,-0.235479 -1.05834,-0.373062 -0.35189,-0.137584 -0.70643,-0.304271 -1.05833,-0.455084 -0.3519,-0.148166 -0.70644,-0.280458 -1.05833,-0.436562 -0.3519,-0.156104 -0.70644,-0.322792 -1.05834,-0.492125 -0.35189,-0.169334 -0.70643,-0.351896 -1.05833,-0.529167 -0.3519,-0.177271 -0.70644,-0.346604 -1.05833,-0.529167 -0.3519,-0.182562 -0.70644,-0.36777 -1.05834,-0.566208 -0.35189,-0.198437 -0.70643,-0.410104 -1.05833,-0.621771 -0.3519,-0.209021 -0.70644,-0.410104 -1.05833,-0.635 -0.3519,-0.22225 -0.70644,-0.463021 -1.05834,-0.706437 -0.35189,-0.240771 -0.70643,-0.489479 -1.05833,-0.746125 -0.3519,-0.256646 -0.70644,-0.529167 -1.05833,-0.79375 -0.3519,-0.264584 -0.70644,-0.529167 -1.05834,-0.79375 -0.35189,-0.264584 -0.70643,-0.523875 -1.05833,-0.79375 -0.3519,-0.272521 -0.70644,-0.582084 -1.05833,-0.838729 -0.3519,-0.256646 -0.70644,-0.45773 -1.05834,-0.6985 -0.35189,-0.243417 -0.70643,-0.510646 -1.05833,-0.762 -0.3519,-0.248709 -0.70644,-0.492125 -1.05833,-0.740834 -0.3519,-0.251354 -0.70644,-0.518583 -1.05834,-0.762 -0.35189,-0.240771 -0.70643,-0.470958 -1.05833,-0.690562 -0.3519,-0.219604 -0.70644,-0.420688 -1.05833,-0.632354 -0.3519,-0.211667 -0.70644,-0.41275 -1.05834,-0.632354 -0.35189,-0.219605 -0.70643,-0.470959 -1.05833,-0.685271 -0.3519,-0.214313 -0.70644,-0.402167 -1.05833,-0.60325 -0.3519,-0.203729 -0.70644,-0.433917 -1.05834,-0.616479 -0.35189,-0.182563 -0.70643,-0.314855 -1.05833,-0.47625 -0.3519,-0.161396 -0.70644,-0.322792 -1.05833,-0.492125 -0.3519,-0.169334 -0.70644,-0.354542 -1.05834,-0.529167 -0.35189,-0.174625 -0.70643,-0.357188 -1.05833,-0.513292 -0.3519,-0.156104 -0.70644,-0.28575 -1.05833,-0.423333 -0.3519,-0.137583 -0.70644,-0.275167 -1.05834,-0.407458 -0.35189,-0.132292 -0.70643,-0.254 -1.05833,-0.386292 -0.3519,-0.132292 -0.70644,-0.28575 -1.05833,-0.402167 -0.3519,-0.116416 -0.7329,-0.164041 -1.05834,-0.301625 -0.32543,-0.137583 -0.80962,-0.322791 -0.89429,-0.529166 -0.0847,-0.206375 0.14552,-0.518584 0.381,-0.703792 0.23813,-0.185208 0.69321,-0.283104 1.04246,-0.41275 0.34925,-0.127 0.70644,-0.232833 1.05833,-0.351896 0.3519,-0.119062 0.70644,-0.22225 1.05834,-0.354542 0.35189,-0.132291 0.70643,-0.296333 1.05833,-0.433916 0.3519,-0.137584 0.70644,-0.243417 1.05833,-0.386292 0.3519,-0.145521 0.70644,-0.320146 1.05834,-0.478896 0.35189,-0.156104 0.70643,-0.309562 1.05833,-0.463021 0.3519,-0.153458 0.70644,-0.298979 1.05833,-0.46302 0.3519,-0.166688 0.70644,-0.34925 1.05834,-0.529167 0.35189,-0.179917 0.70643,-0.34925 1.05833,-0.545042 0.3519,-0.195791 0.70644,-0.428625 1.05833,-0.629708 0.3519,-0.201083 0.70644,-0.378354 1.05834,-0.582083 0.35189,-0.203729 0.70643,-0.418042 1.05833,-0.635 0.3519,-0.219604 0.70644,-0.4445 1.05833,-0.672042 0.3519,-0.230187 0.70644,-0.470958 1.05834,-0.706437 0.35189,-0.23548 0.70643,-0.465667 1.05833,-0.71173 0.3519,-0.243416 0.70644,-0.518583 1.05833,-0.759354 0.3519,-0.240771 0.70644,-0.439208 1.05834,-0.682625 0.35189,-0.246062 0.70643,-0.523875 1.05833,-0.788458 0.3519,-0.264583 0.70644,-0.529167 1.05833,-0.79375 0.3519,-0.264583 0.70644,-0.529167 1.05834,-0.79375 0.35189,-0.264583 0.70643,-0.529167 1.05833,-0.79375 0.3519,-0.264583 0.70644,-0.529167 1.05833,-0.79375 0.3519,-0.264583 0.70644,-0.529167 1.05834,-0.79375 0.35189,-0.264583 0.70643,-0.542396 1.05833,-0.791104 0.3519,-0.251354 0.70644,-0.478896 1.05833,-0.709084 0.3519,-0.230187 0.70644,-0.452437 1.05834,-0.672041 0.35189,-0.216959 0.70643,-0.431271 1.05833,-0.637646 0.3519,-0.203729 0.70644,-0.402167 1.05833,-0.597958 0.3519,-0.195792 0.70644,-0.410104 1.05834,-0.579438 0.35189,-0.166687 0.70643,-0.277812 1.05833,-0.428625 0.3519,-0.150812 0.70644,-0.325437 1.05833,-0.47625 0.3519,-0.150812 0.70644,-0.283104 1.05834,-0.423333 0.35189,-0.140229 0.70643,-0.280458 1.05833,-0.418042 0.3519,-0.137583 0.70644,-0.280458 1.05833,-0.407458 0.3519,-0.127 0.70644,-0.240771 1.05834,-0.354542 0.35189,-0.111125 0.70643,-0.22225 1.05833,-0.3175 0.3519,-0.0979 0.70644,-0.182562 1.05833,-0.267229 0.3519,-0.08467 0.70644,-0.177271 1.05834,-0.246062 0.35189,-0.06615 0.70643,-0.100542 1.05833,-0.153459 0.3519,-0.05292 0.74877,-0.116416 1.05833,-0.161396 0.30957,-0.04498 0.48419,-0.06085 0.79375,-0.103187 z"
       fill="#5154b4"
       fill-rule="evenodd"
       id="path3"
       style="fill:#ffffff;fill-opacity:1;stroke-width:0.264583" />
    <path
       d="m 95.162949,18.174872 c -0.30956,0.04233 -0.70644,0.119063 -1.05833,0.156105 -0.3519,0.03439 -0.70644,0.01588 -1.05834,0.05821 -0.35189,0.04233 -0.70643,0.145521 -1.05833,0.1905 -0.3519,0.04498 -0.70644,0.02646 -1.05833,0.07408 -0.3519,0.04763 -0.70644,0.137584 -1.05834,0.211667 -0.35189,0.07408 -0.70643,0.153458 -1.05833,0.232833 -0.3519,0.07937 -0.70644,0.171979 -1.05833,0.248709 -0.3519,0.07938 -0.70644,0.134937 -1.05834,0.214312 -0.35189,0.08202 -0.70643,0.174625 -1.05833,0.264583 -0.3519,0.08996 -0.70644,0.174625 -1.05833,0.280459 -0.3519,0.103187 -0.70644,0.230187 -1.05834,0.346604 -0.35189,0.116417 -0.70643,0.230187 -1.05833,0.351896 -0.3519,0.124354 -0.70644,0.251354 -1.05833,0.386291 -0.3519,0.134938 -0.70644,0.269875 -1.05834,0.423334 -0.35189,0.153458 -0.70643,0.330729 -1.05833,0.492125 -0.3519,0.15875 -0.70644,0.309562 -1.05833,0.463021 -0.3519,0.153458 -0.70644,0.298979 -1.05834,0.46302 -0.35189,0.166688 -0.70643,0.351896 -1.05833,0.529167 -0.3519,0.177271 -0.70644,0.351896 -1.05833,0.529167 -0.3519,0.177271 -0.70644,0.343958 -1.05834,0.529166 -0.35189,0.187855 -0.70643,0.391584 -1.05833,0.595313 -0.3519,0.203729 -0.70644,0.41275 -1.05833,0.632354 -0.3519,0.219604 -0.70644,0.470958 -1.05834,0.685271 -0.35189,0.214312 -0.70643,0.396875 -1.05833,0.60325 -0.3519,0.209021 -0.70644,0.415396 -1.05833,0.637646 -0.3519,0.224895 -0.70644,0.468312 -1.05834,0.703791 -0.35189,0.235479 -0.70643,0.463021 -1.05833,0.706438 -0.3519,0.246062 -0.70644,0.505354 -1.05833,0.762 -0.3519,0.259291 -0.70644,0.542396 -1.05834,0.788458 -0.35189,0.243417 -0.70643,0.447146 -1.05833,0.682625 -0.3519,0.235479 -0.70644,0.500063 -1.05833,0.727604 -0.3519,0.227542 -0.70644,0.428625 -1.05834,0.642938 -0.35189,0.211666 -0.70643,0.420687 -1.05833,0.629708 -0.3519,0.209021 -0.70644,0.428625 -1.05833,0.629708 -0.3519,0.20373 -0.70644,0.402167 -1.05834,0.590021 -0.35189,0.187854 -0.70643,0.351896 -1.05833,0.534459 -0.3519,0.182562 -0.70644,0.383645 -1.05833,0.560916 -0.3519,0.174625 -0.70644,0.330729 -1.05834,0.497417 -0.35189,0.166687 -0.70643,0.328083 -1.05833,0.497417 -0.3519,0.169333 -0.70644,0.359833 -1.05833,0.523875 -0.3519,0.164041 -0.70644,0.314854 -1.05834,0.455083 -0.35189,0.140229 -0.70643,0.261937 -1.05833,0.386292 -0.3519,0.121708 -0.70644,0.230187 -1.05833,0.357187 -0.3519,0.127 -0.70644,0.283104 -1.05834,0.407458 -0.35189,0.121709 -0.70643,0.214313 -1.05833,0.33073 -0.3519,0.11377 -0.70644,0.230187 -1.05833,0.351895 -0.3519,0.119063 -0.70644,0.269875 -1.05834,0.370417 -0.35189,0.0979 -0.70643,0.137583 -1.05833,0.230187 -0.3519,0.08996 -0.70644,0.219605 -1.05833,0.3175 -0.3519,0.0979 -0.70644,0.187855 -1.05834,0.264584 -0.35189,0.07937 -0.70643,0.134937 -1.05833,0.203729 -0.3519,0.07144 -0.70644,0.142875 -1.05833,0.209021 -0.3519,0.06879 -0.70644,0.145521 -1.05834,0.201083 -0.351892,0.05292 -0.706434,0.07408 -1.058329,0.121708 -0.351896,0.04498 -0.706438,0.111125 -1.058334,0.156105 -0.351895,0.04498 -0.706437,0.0635 -1.058333,0.108479 -0.351896,0.04233 -0.706437,0.127 -1.058333,0.156104 -0.351896,0.02646 -0.706438,0 -1.058334,0.0053 -0.351895,0.0053 -0.706437,-0.01323 -1.058333,0.02117 -0.351896,0.0344 -0.706437,0.150813 -1.058333,0.1905 -0.351896,0.03969 -0.706438,0.04498 -1.058334,0.05292 -0.351895,0.0079 -0.706437,0 -1.058333,0 -0.351896,0 -0.706437,0 -1.058333,0 -0.351896,0 -0.706438,0 -1.058334,0 -0.351895,0 -0.706437,0 -1.058333,0 -0.351896,0 -0.706437,0 -1.058333,0 -0.351896,0 -0.706438,0 -1.058333,0 -0.351896,0 -0.706438,-0.0079 -1.058334,0 -0.351896,0.0079 -0.706437,0.01058 -1.058333,0.05292 -0.351896,0.03969 -0.719667,0.127 -1.058333,0.193145 -0.338667,0.06615 -0.756709,0.02381 -0.976313,0.20373 -0.219604,0.179916 -0.280458,0.552979 -0.338667,0.87577 -0.05821,0.320146 -0.01058,0.703792 -0.0079,1.055688 0.0026,0.351896 -0.0635,0.754062 0.0291,1.050396 0.0926,0.293687 0.269875,0.584729 0.529167,0.719666 0.259291,0.132292 0.682625,0.06879 1.029229,0.08202 0.346604,0.01323 0.706437,0 1.058333,0 0.351896,0 0.706438,0 1.058334,0 0.351895,0 0.706437,0 1.058333,0 0.351896,0 0.706437,0 1.058333,0 0.351896,0 0.706438,0 1.058333,0 0.351896,0 0.706438,0 1.058334,0 0.351896,0 0.706437,0 1.058333,0 0.351896,0 0.706438,0 1.058333,0 0.351896,0 0.706438,0 1.058334,0 0.351896,0 0.706437,0.0026 1.058333,0 0.351896,-0.0026 0.706438,0.01323 1.058333,-0.02117 0.351896,-0.0344 0.706438,-0.150813 1.058334,-0.1905 0.351896,-0.03969 0.706437,-0.0344 1.058333,-0.05292 0.351896,-0.01852 0.706438,-0.01323 1.058333,-0.05292 0.351896,-0.03969 0.706438,-0.145521 1.058334,-0.1905 0.351896,-0.04498 0.706437,-0.0291 1.058333,-0.07408 0.351896,-0.04498 0.706433,-0.140229 1.058333,-0.193146 0.35189,-0.05027 0.70643,-0.07144 1.05833,-0.121708 0.3519,-0.05027 0.70644,-0.111125 1.05833,-0.177271 0.3519,-0.0635 0.70644,-0.137583 1.05834,-0.216958 0.35189,-0.07937 0.70643,-0.177271 1.05833,-0.264584 0.3519,-0.08731 0.70644,-0.177271 1.05833,-0.264583 0.3519,-0.08731 0.70644,-0.171979 1.05834,-0.264583 0.35189,-0.0926 0.70643,-0.198438 1.05833,-0.296334 0.3519,-0.0979 0.70644,-0.203729 1.05833,-0.296333 0.3519,-0.0926 0.70644,-0.166688 1.05834,-0.267229 0.35189,-0.0979 0.70643,-0.206375 1.05833,-0.333375 0.3519,-0.127 0.70644,-0.291042 1.05833,-0.420688 0.3519,-0.129646 0.70644,-0.235479 1.05834,-0.357187 0.35189,-0.124354 0.70643,-0.251354 1.05833,-0.386292 0.3519,-0.134937 0.70644,-0.272521 1.05833,-0.423333 0.3519,-0.150813 0.70644,-0.325438 1.05834,-0.47625 0.35189,-0.150813 0.70643,-0.272521 1.05833,-0.428625 0.3519,-0.156104 0.70644,-0.338667 1.05833,-0.513292 0.3519,-0.174625 0.70644,-0.34925 1.05834,-0.529166 0.35189,-0.179917 0.70643,-0.34925 1.05833,-0.545042 0.3519,-0.195792 0.70644,-0.428625 1.05833,-0.629708 0.3519,-0.201084 0.70644,-0.373063 1.05834,-0.582084 0.35189,-0.211666 0.70643,-0.465666 1.05833,-0.685271 0.3519,-0.219604 0.70644,-0.423333 1.05833,-0.635 0.3519,-0.214312 0.70644,-0.418041 1.05834,-0.637645 0.35189,-0.22225 0.70643,-0.4445 1.05833,-0.687917 0.3519,-0.243417 0.70644,-0.534458 1.05833,-0.772583 0.3519,-0.238125 0.70644,-0.433917 1.05834,-0.656167 0.35189,-0.22225 0.70643,-0.439208 1.05833,-0.672042 0.3519,-0.235479 0.70644,-0.497416 1.05833,-0.738187 0.3519,-0.240771 0.70644,-0.47625 1.05834,-0.706438 0.35189,-0.227541 0.70643,-0.452437 1.05833,-0.672041 0.3519,-0.219605 0.70644,-0.431271 1.05833,-0.650875 0.3519,-0.219605 0.70644,-0.452438 1.05834,-0.672042 0.35189,-0.219604 0.70643,-0.4445 1.05833,-0.650875 0.3519,-0.203729 0.70644,-0.391583 1.05833,-0.584729 0.3519,-0.193146 0.70644,-0.394229 1.05834,-0.579438 0.35189,-0.187854 0.70643,-0.365125 1.05833,-0.545041 0.3519,-0.179917 0.70644,-0.351896 1.05833,-0.529167 0.3519,-0.177271 0.70644,-0.362479 1.05834,-0.529167 0.35189,-0.164041 0.70643,-0.322791 1.05833,-0.457729 0.3519,-0.134937 0.70644,-0.240771 1.05833,-0.357187 0.3519,-0.119063 0.70644,-0.235479 1.05834,-0.354542 0.35189,-0.116417 0.70643,-0.235479 1.05833,-0.351896 0.3519,-0.116416 0.70644,-0.243416 1.05833,-0.346604 0.3519,-0.105833 0.70644,-0.185208 1.05834,-0.28575 0.35189,-0.100542 0.70643,-0.230187 1.05833,-0.3175 0.3519,-0.08996 0.70644,-0.132292 1.05833,-0.211667 0.3519,-0.07673 0.70644,-0.185208 1.05834,-0.256645 0.35189,-0.07408 0.70643,-0.121709 1.05833,-0.185209 0.3519,-0.0635 0.70644,-0.137583 1.05833,-0.198437 0.3519,-0.05821 0.70644,-0.100542 1.05834,-0.153459 0.35189,-0.05027 0.70643,-0.124354 1.05833,-0.156104 0.3519,-0.0291 0.70644,0.01058 1.05833,-0.02646 0.3519,-0.03704 0.70644,-0.150813 1.05834,-0.1905 0.35189,-0.03969 0.70643,-0.04498 1.05833,-0.05292 0.3519,-0.0079 0.70644,0 1.05833,0 0.3519,0 0.70644,0 1.05834,0 0.351891,0 0.706431,-0.0079 1.058331,0 0.3519,0.0079 0.70644,0.01323 1.05833,0.05292 0.3519,0.03969 0.70644,0.145521 1.05834,0.1905 0.35189,0.04498 0.70643,0.0291 1.05833,0.07408 0.3519,0.04498 0.70644,0.140229 1.05833,0.193146 0.3519,0.05027 0.70644,0.07144 1.05834,0.121708 0.35189,0.05027 0.70643,0.113771 1.05833,0.177271 0.3519,0.06085 0.70644,0.132292 1.05833,0.203729 0.3519,0.06879 0.70644,0.129646 1.05834,0.211667 0.35189,0.08202 0.70643,0.179917 1.05833,0.277813 0.3519,0.100541 0.70644,0.219604 1.05833,0.314854 0.3519,0.0979 0.70644,0.171979 1.05834,0.267229 0.35189,0.09525 0.70643,0.182562 1.05833,0.301625 0.3519,0.121708 0.70644,0.288396 1.05833,0.420687 0.3519,0.132292 0.70644,0.23548 1.05834,0.373063 0.35189,0.137583 0.70643,0.298979 1.05833,0.455083 0.3519,0.153459 0.70644,0.306917 1.05833,0.468313 0.3519,0.161395 0.70644,0.3175 1.05834,0.497416 0.35189,0.179917 0.70643,0.396875 1.05833,0.587375 0.3519,0.193146 0.70644,0.383646 1.05833,0.566209 0.3519,0.182562 0.70644,0.343958 1.05834,0.529166 0.35189,0.187854 0.70643,0.391584 1.05833,0.595313 0.3519,0.203729 0.70644,0.41275 1.05833,0.632354 0.3519,0.219604 0.70644,0.457729 1.05834,0.690562 0.35189,0.232834 0.70643,0.470959 1.05833,0.706438 0.3519,0.235479 0.70644,0.468312 1.05833,0.703792 0.3519,0.235479 0.70644,0.470958 1.05834,0.706437 0.35189,0.235479 0.70643,0.470958 1.05833,0.706438 0.3519,0.235479 0.70644,0.468312 1.05833,0.703791 0.3519,0.235479 0.70644,0.470959 1.05834,0.706438 0.35189,0.235479 0.70643,0.470958 1.05833,0.706437 0.3519,0.235479 0.70644,0.47625 1.05833,0.703792 0.3519,0.224896 0.70644,0.436562 1.05834,0.650875 0.35189,0.214312 0.70643,0.436562 1.05833,0.635 0.3519,0.198437 0.70644,0.354542 1.05833,0.550333 0.3519,0.195792 0.70644,0.41275 1.05834,0.621771 0.35189,0.206375 0.70643,0.433917 1.05833,0.627063 0.3519,0.193145 0.70644,0.365125 1.05833,0.531812 0.3519,0.164042 0.70644,0.298979 1.05834,0.463021 0.35189,0.166687 0.70643,0.354541 1.05833,0.529166 0.3519,0.174625 0.70644,0.36248 1.05833,0.523875 0.3519,0.161396 0.70644,0.293688 1.05834,0.436563 0.35189,0.145521 0.70643,0.293687 1.05833,0.423333 0.3519,0.129646 0.70644,0.240771 1.05833,0.357188 0.3519,0.119062 0.70644,0.235479 1.05834,0.354541 0.35189,0.116417 0.70643,0.23548 1.05833,0.351896 0.3519,0.116417 0.70644,0.243417 1.05833,0.346604 0.3519,0.105834 0.70644,0.185209 1.05834,0.28575 0.35189,0.100542 0.70643,0.224896 1.05833,0.322792 0.3519,0.0979 0.70644,0.182563 1.05833,0.269875 0.3519,0.08731 0.70644,0.1905 1.05834,0.259292 0.35189,0.06879 0.70643,0.08731 1.05833,0.153458 0.3519,0.06879 0.70644,0.166688 1.05833,0.246063 0.3519,0.07937 0.70644,0.15875 1.05834,0.232833 0.35189,0.07408 0.70643,0.150812 1.05833,0.214312 0.35189,0.06086 0.70644,0.100542 1.05833,0.153459 0.3519,0.05027 0.70644,0.111125 1.05834,0.156104 0.35189,0.04498 0.70643,0.0635 1.05833,0.108479 0.35189,0.04233 0.70644,0.127 1.05833,0.156104 0.3519,0.02646 0.70644,-0.01588 1.05834,0.01058 0.35189,0.0291 0.70643,0.11377 1.05833,0.156104 0.35189,0.04233 0.70644,0.08467 1.05833,0.100541 0.3519,0.01852 0.70644,0.0026 1.05834,0.0026 0.35189,0 0.70643,0 1.05833,0 0.35189,0 0.70644,0 1.05833,0 0.3519,0 0.70644,0 1.05834,0 0.35189,0 0.70643,0 1.05833,0 0.35189,0 0.70644,0 1.05833,0 0.3519,0 0.70644,0 1.05834,0 0.35189,0 0.70643,0 1.05833,0 0.35189,0 0.70644,0 1.05833,0 0.3519,0 0.70909,0.01323 1.05834,0 0.34925,-0.01323 0.74877,0.05027 1.03452,-0.08202 0.28839,-0.134937 0.55033,-0.425979 0.68527,-0.719666 0.13493,-0.296334 0.12964,-0.6985 0.12435,-1.050396 -0.005,-0.351896 -0.082,-0.735542 -0.1561,-1.055688 -0.0714,-0.322791 -0.09,-0.690562 -0.28311,-0.87577 -0.19579,-0.185209 -0.55562,-0.164042 -0.87841,-0.23548 -0.32015,-0.07144 -0.7038,-0.15875 -1.05569,-0.193145 -0.3519,-0.0344 -0.70644,-0.01852 -1.05833,-0.02117 -0.3519,-0.0026 -0.70644,0 -1.05834,0 -0.35189,0 -0.70644,0 -1.05833,0 -0.3519,0 -0.70644,0 -1.05833,0 -0.3519,0 -0.70644,0 -1.05834,0 -0.35189,0 -0.70644,0 -1.05833,0 -0.3519,0 -0.70644,0 -1.05833,0 -0.3519,0 -0.70644,0.0026 -1.05834,0 -0.35189,-0.0026 -0.70644,0.01323 -1.05833,-0.02117 -0.3519,-0.0344 -0.70644,-0.150812 -1.05833,-0.1905 -0.3519,-0.03969 -0.70644,-0.0344 -1.05834,-0.05292 -0.35189,-0.01852 -0.70644,-0.01323 -1.05833,-0.05292 -0.3519,-0.03969 -0.70644,-0.153458 -1.05833,-0.1905 -0.3519,-0.03704 -0.70644,0.0026 -1.05834,-0.02646 -0.35189,-0.03175 -0.70644,-0.0979 -1.05833,-0.15875 -0.3519,-0.05821 -0.70644,-0.14023 -1.05833,-0.201084 -0.3519,-0.06085 -0.70644,-0.108479 -1.05834,-0.164041 -0.35189,-0.05556 -0.70643,-0.09525 -1.05833,-0.169334 -0.3519,-0.07144 -0.70644,-0.171979 -1.05833,-0.261937 -0.3519,-0.08996 -0.70644,-0.174625 -1.05834,-0.280459 -0.35189,-0.103187 -0.70643,-0.238125 -1.05833,-0.346604 -0.3519,-0.105833 -0.70644,-0.201083 -1.05833,-0.296333 -0.3519,-0.0926 -0.70644,-0.166687 -1.05834,-0.267229 -0.35189,-0.0979 -0.70643,-0.206375 -1.05833,-0.333375 -0.3519,-0.127 -0.70644,-0.291042 -1.05833,-0.420688 -0.3519,-0.129645 -0.70644,-0.235479 -1.05834,-0.357187 -0.35189,-0.124354 -0.70643,-0.251354 -1.05833,-0.386292 -0.3519,-0.134937 -0.70644,-0.272521 -1.05833,-0.423333 -0.3519,-0.150813 -0.70644,-0.325438 -1.05834,-0.47625 -0.35189,-0.150813 -0.70643,-0.272521 -1.05833,-0.428625 -0.3519,-0.156104 -0.70644,-0.338667 -1.05833,-0.513292 -0.3519,-0.174625 -0.70644,-0.351896 -1.05834,-0.529166 -0.35189,-0.177271 -0.70643,-0.351896 -1.05833,-0.529167 -0.3519,-0.177271 -0.70644,-0.341313 -1.05833,-0.529167 -0.3519,-0.1905 -0.70644,-0.386291 -1.05834,-0.600604 -0.35189,-0.214312 -0.70643,-0.465667 -1.05833,-0.685271 -0.3519,-0.219604 -0.70644,-0.418041 -1.05833,-0.632354 -0.3519,-0.214312 -0.70644,-0.418042 -1.05834,-0.645583 -0.35189,-0.230188 -0.70643,-0.489479 -1.05833,-0.727604 -0.3519,-0.240771 -0.70644,-0.463021 -1.05833,-0.714375 -0.3519,-0.248709 -0.70644,-0.534459 -1.05834,-0.788459 -0.35189,-0.256646 -0.70643,-0.505354 -1.05833,-0.740833 -0.3519,-0.232833 -0.70644,-0.449792 -1.05833,-0.672042 -0.3519,-0.219604 -0.70644,-0.425979 -1.05834,-0.650875 -0.35189,-0.224896 -0.70643,-0.478896 -1.05833,-0.703791 -0.3519,-0.224896 -0.70644,-0.436563 -1.05833,-0.650875 -0.3519,-0.214313 -0.70644,-0.431271 -1.05834,-0.635 -0.35189,-0.203729 -0.70643,-0.381 -1.05833,-0.582084 -0.3519,-0.201083 -0.70644,-0.425979 -1.05833,-0.619125 -0.3519,-0.193145 -0.70644,-0.357187 -1.05834,-0.534458 -0.35189,-0.177271 -0.70643,-0.351896 -1.05833,-0.529167 -0.3519,-0.17727 -0.70644,-0.359833 -1.05833,-0.529166 -0.3519,-0.169334 -0.70644,-0.336021 -1.05834,-0.492125 -0.35189,-0.156104 -0.70643,-0.288396 -1.05833,-0.436563 -0.3519,-0.150812 -0.70644,-0.306916 -1.05833,-0.460375 -0.3519,-0.153458 -0.70644,-0.312208 -1.05834,-0.460375 -0.35189,-0.145521 -0.70643,-0.291041 -1.05833,-0.420687 -0.3519,-0.129646 -0.70644,-0.240771 -1.05833,-0.354542 -0.3519,-0.111125 -0.70644,-0.216958 -1.05834,-0.320146 -0.35189,-0.100541 -0.70643,-0.198437 -1.05833,-0.296333 -0.3519,-0.0979 -0.70644,-0.211667 -1.05833,-0.296333 -0.3519,-0.08467 -0.70644,-0.156105 -1.05834,-0.214313 -0.35189,-0.05556 -0.70643,-0.06615 -1.05833,-0.121708 -0.3519,-0.05556 -0.70644,-0.137584 -1.05833,-0.206375 -0.3519,-0.07144 -0.70644,-0.148167 -1.05834,-0.219604 -0.35189,-0.07144 -0.70643,-0.166688 -1.05833,-0.211667 -0.3519,-0.04498 -0.70644,-0.02381 -1.05833,-0.05821 -0.3519,-0.03704 -0.70644,-0.113771 -1.05834,-0.156105 -0.35189,-0.04233 -0.70643,-0.08467 -1.05833,-0.100541 -0.3519,-0.01852 -0.70644,-0.0026 -1.05833,-0.0026 -0.3519,0 -0.70644,0 -1.05834,0 -0.351891,0 -0.706431,0 -1.058331,0 -0.3519,0 -0.70644,0 -1.05833,0 -0.3519,0 -0.70644,0 -1.05834,0 -0.35189,0 -0.74877,-0.01058 -1.05833,0.0053 -0.30956,0.01852 -0.48419,0.05556 -0.79375,0.0979 z"
       fill="#5154b4"
       fill-rule="evenodd"
       id="path4"
       style="fill:#ffffff;fill-opacity:1;stroke-width:0.264583" />
    <text
       xml:space="preserve"
       style="font-size:3.175px;text-align:start;writing-mode:lr-tb;direction:ltr;text-anchor:start;fill:#000000;fill-opacity:1;stroke-width:0.264583"
       x="52.431664"
       y="127.52733"
       id="text1"><tspan
         sodipodi:role="line"
         id="tspan1"
         style="fill:#000000;fill-opacity:1;stroke-width:0.264583"
         x="52.431664"
         y="127.52733" /></text>
    <text
       xml:space="preserve"
       transform="scale(0.26458333)"
       id="text2"
       style="text-align:start;writing-mode:lr-tb;direction:ltr;white-space:pre;shape-inside:url(#rect2);display:inline;fill:#000000;fill-opacity:1" />
  </g>
</svg>
